<svg width="13" height="18" viewBox="0 0 13 18" fill="none" xmlns="http://www.w3.org/2000/svg">
<path d="M6.83585 5.46174C6.83585 5.29598 6.90169 5.13701 7.0189 5.0198C7.13611 4.90259 7.29509 4.83674 7.46085 4.83674H11.8208C11.9444 4.83685 12.0651 4.87356 12.1678 4.94225C12.2705 5.01093 12.3505 5.1085 12.3978 5.22264C12.445 5.33677 12.4574 5.46235 12.4333 5.58352C12.4092 5.70468 12.3498 5.816 12.2625 5.90341L9.94918 8.21757C10.4075 8.29841 10.83 8.42841 11.1925 8.62007C11.9467 9.01757 12.4458 9.69007 12.4458 10.6351C12.4458 11.4401 12.0533 12.0934 11.4692 12.5267C10.8967 12.9526 10.1467 13.1684 9.36835 13.1684C8.22918 13.1684 7.47335 12.7284 7.14585 12.5384C7.00252 12.455 6.8982 12.318 6.85585 12.1577C6.8135 11.9973 6.83658 11.8267 6.92001 11.6834C7.00345 11.5401 7.1404 11.4358 7.30074 11.3934C7.46108 11.3511 7.63169 11.3741 7.77501 11.4576C8.05085 11.6184 8.56918 11.9184 9.36835 11.9184C9.92918 11.9184 10.4042 11.7617 10.7242 11.5242C11.0325 11.2951 11.1958 10.9951 11.1958 10.6351C11.1958 10.2184 11.0133 9.93841 10.61 9.72591C10.1617 9.48924 9.46418 9.35674 8.55085 9.35674C8.42731 9.35663 8.30658 9.31992 8.2039 9.25123C8.10122 9.18255 8.0212 9.08498 7.97394 8.97084C7.92668 8.85671 7.9143 8.73113 7.93837 8.60996C7.96244 8.48879 8.02188 8.37748 8.10918 8.29007L10.3117 6.08674H7.46085C7.29509 6.08674 7.13611 6.02089 7.0189 5.90368C6.90169 5.78647 6.83585 5.6275 6.83585 5.46174ZM2.56668 11.6792C2.31821 11.6501 2.06696 11.7016 1.84999 11.8261C1.63302 11.9507 1.46183 12.1417 1.36168 12.3709C1.29205 12.5188 1.16724 12.6336 1.01401 12.6905C0.860779 12.7475 0.691326 12.7422 0.541983 12.6757C0.392639 12.6092 0.275294 12.4868 0.215106 12.3348C0.154919 12.1828 0.15668 12.0133 0.220013 11.8626C0.428327 11.3905 0.782251 10.9975 1.22999 10.7411C1.67774 10.4847 2.19579 10.3784 2.70835 10.4376C3.19918 10.4876 3.65751 10.7067 4.00585 11.0567C4.36751 11.4284 4.57668 11.9384 4.57668 12.5384C4.57668 13.9059 3.53168 14.5692 2.81001 15.0267C2.36168 15.3109 1.82668 15.6051 1.56418 16.0876H4.12501C4.29077 16.0876 4.44974 16.1534 4.56695 16.2706C4.68416 16.3878 4.75001 16.5468 4.75001 16.7126C4.75001 16.8783 4.68416 17.0373 4.56695 17.1545C4.44974 17.2717 4.29077 17.3376 4.12501 17.3376H0.79168C0.625919 17.3376 0.466948 17.2717 0.349738 17.1545C0.232528 17.0373 0.16668 16.8783 0.16668 16.7126C0.16668 15.2134 1.28085 14.5209 2.03585 14.0376C2.89585 13.4884 3.32751 13.1784 3.32751 12.5376C3.32751 12.2417 3.23085 12.0509 3.11085 11.9276C2.96368 11.7848 2.77096 11.6971 2.56668 11.6792ZM2.76168 0.745072C2.8592 0.799203 2.94045 0.878442 2.99701 0.974569C3.05358 1.0707 3.08338 1.18021 3.08335 1.29174V6.50007H4.12668C4.29244 6.50007 4.45141 6.56592 4.56862 6.68313C4.68583 6.80034 4.75168 6.95931 4.75168 7.12507C4.75168 7.29083 4.68583 7.4498 4.56862 7.56701C4.45141 7.68422 4.29244 7.75007 4.12668 7.75007H0.79168C0.625919 7.75007 0.466948 7.68422 0.349738 7.56701C0.232528 7.4498 0.16668 7.29083 0.16668 7.12507C0.16668 6.95931 0.232528 6.80034 0.349738 6.68313C0.466948 6.56592 0.625919 6.50007 0.79168 6.50007H1.83335V2.41924L1.12251 2.86341C0.981948 2.95126 0.812241 2.97967 0.650725 2.9424C0.48921 2.90513 0.349116 2.80522 0.261263 2.66466C0.17341 2.52409 0.144995 2.35438 0.182267 2.19287C0.21954 2.03135 0.319448 1.89126 0.460013 1.80341L2.12668 0.761739C2.22137 0.702462 2.33023 0.66965 2.4419 0.666719C2.55358 0.663788 2.66401 0.690844 2.76168 0.745072Z" fill="white"/>
</svg>
