<svg width="20" height="20" viewBox="0 0 20 20" fill="none" xmlns="http://www.w3.org/2000/svg">
<path d="M8.33335 3.3335C7.4493 3.3335 6.60145 3.68469 5.97633 4.30981C5.35121 4.93493 5.00002 5.78277 5.00002 6.66683C5.00002 7.55088 5.35121 8.39873 5.97633 9.02385C6.60145 9.64897 7.4493 10.0002 8.33335 10.0002C9.21741 10.0002 10.0653 9.64897 10.6904 9.02385C11.3155 8.39873 11.6667 7.55088 11.6667 6.66683C11.6667 5.78277 11.3155 4.93493 10.6904 4.30981C10.0653 3.68469 9.21741 3.3335 8.33335 3.3335ZM8.33335 5.00016C8.77538 5.00016 9.1993 5.17576 9.51186 5.48832C9.82442 5.80088 10 6.2248 10 6.66683C10 7.10886 9.82442 7.53278 9.51186 7.84534C9.1993 8.1579 8.77538 8.3335 8.33335 8.3335C7.89133 8.3335 7.4674 8.1579 7.15484 7.84534C6.84228 7.53278 6.66669 7.10886 6.66669 6.66683C6.66669 6.2248 6.84228 5.80088 7.15484 5.48832C7.4674 5.17576 7.89133 5.00016 8.33335 5.00016ZM14.1667 10.0002C14.0334 10.0002 13.9667 10.0668 13.9667 10.2002L13.75 11.2502C13.5667 11.4002 13.3 11.5335 13.1 11.6668L12.0334 11.2502C11.9667 11.2502 11.8334 11.2502 11.7667 11.3335L10.9667 12.8002C10.9 12.8668 10.9 13.0002 11.0334 13.0668L11.9 13.7502V14.5835L11.0334 15.2668C10.9667 15.3335 10.9 15.4668 10.9667 15.5335L11.7667 17.0002C11.8334 17.0835 11.9667 17.0835 12.0334 17.0835L13.1 16.6668C13.3 16.8002 13.5667 16.9335 13.75 17.0835L13.9667 18.1335C13.9667 18.2668 14.0334 18.3335 14.1667 18.3335H15.8334C15.9 18.3335 16.0334 18.2668 16.0334 18.1335L16.1667 17.0835C16.4334 16.9335 16.7 16.8002 16.9 16.6668L17.9167 17.0835C18.0334 17.0835 18.1667 17.0835 18.1667 17.0002L19.0334 15.5335C19.1 15.4668 19.0333 15.3335 18.9667 15.2668L18.1 14.5835V13.7502L18.9667 13.0668C19.0333 13.0002 19.1 12.8668 19.0334 12.8002L18.1667 11.3335C18.1667 11.2502 18.0334 11.2502 17.9167 11.2502L16.9 11.6668C16.7 11.5335 16.4334 11.4002 16.1667 11.2502L16.0334 10.2002C16.0334 10.0668 15.9 10.0002 15.8334 10.0002H14.1667ZM8.33335 10.8335C6.10835 10.8335 1.66669 11.9418 1.66669 14.1668V16.6668H9.72502C9.49169 16.1752 9.32502 15.6418 9.24169 15.0835H3.25002V14.1668C3.25002 13.6335 5.85835 12.4168 8.33335 12.4168C8.69169 12.4168 9.05835 12.4502 9.41669 12.5002C9.58335 11.9668 9.80835 11.4668 10.1 11.0085C9.45002 10.9002 8.83335 10.8335 8.33335 10.8335ZM15.0334 12.9168C15.7 12.9168 16.25 13.4668 16.25 14.2002C16.25 14.8668 15.7 15.4168 15.0334 15.4168C14.3 15.4168 13.75 14.8668 13.75 14.2002C13.75 13.4668 14.3 12.9168 15.0334 12.9168Z" fill="white"/>
</svg>
