<svg width="16" height="16" viewBox="0 0 16 16" fill="none" xmlns="http://www.w3.org/2000/svg">
<path d="M14.6467 12.22C14.6467 12.46 14.5933 12.7067 14.48 12.9467C14.3667 13.1867 14.22 13.4133 14.0267 13.6267C13.7 13.9867 13.34 14.2467 12.9333 14.4133C12.5333 14.58 12.1 14.6667 11.6333 14.6667C10.9533 14.6667 10.2267 14.5067 9.45999 14.18C8.69333 13.8533 7.92666 13.4133 7.16666 12.86C6.39999 12.3 5.67333 11.68 4.97999 10.9933C4.29333 10.3 3.67333 9.57333 3.11999 8.81333C2.57333 8.05333 2.13333 7.29333 1.81333 6.53999C1.49333 5.77999 1.33333 5.05333 1.33333 4.35999C1.33333 3.90666 1.41333 3.47333 1.57333 3.07333C1.73333 2.66666 1.98666 2.29333 2.33999 1.95999C2.76666 1.53999 3.23333 1.33333 3.72666 1.33333C3.91333 1.33333 4.09999 1.37333 4.26666 1.45333C4.43999 1.53333 4.59333 1.65333 4.71333 1.82666L6.25999 4.00666C6.37999 4.17333 6.46666 4.32666 6.52666 4.47333C6.58666 4.61333 6.61999 4.75333 6.61999 4.87999C6.61999 5.03999 6.57333 5.19999 6.47999 5.35333C6.39333 5.50666 6.26666 5.66666 6.10666 5.82666L5.59999 6.35333C5.52666 6.42666 5.49333 6.51333 5.49333 6.61999C5.49333 6.67333 5.49999 6.71999 5.51333 6.77333C5.53333 6.82666 5.55333 6.86666 5.56666 6.90666C5.68666 7.12666 5.89333 7.41333 6.18666 7.75999C6.48666 8.10666 6.80666 8.45999 7.15333 8.81333C7.51333 9.16666 7.85999 9.49333 8.21333 9.79333C8.55999 10.0867 8.84666 10.2867 9.07333 10.4067C9.10666 10.42 9.14666 10.44 9.19333 10.46C9.24666 10.48 9.29999 10.4867 9.35999 10.4867C9.47333 10.4867 9.55999 10.4467 9.63333 10.3733L10.14 9.87333C10.3067 9.70666 10.4667 9.57999 10.62 9.49999C10.7733 9.40666 10.9267 9.35999 11.0933 9.35999C11.22 9.35999 11.3533 9.38666 11.5 9.44666C11.6467 9.50666 11.8 9.59333 11.9667 9.70666L14.1733 11.2733C14.3467 11.3933 14.4667 11.5333 14.54 11.7C14.6067 11.8667 14.6467 12.0333 14.6467 12.22Z" stroke="white" stroke-miterlimit="10"/>
</svg>
