<svg width="16" height="16" viewBox="0 0 16 16" fill="none" xmlns="http://www.w3.org/2000/svg">
<path d="M6.00004 15.1668H4.66671C1.72671 15.1668 0.833374 14.2735 0.833374 11.3335V4.66683C0.833374 1.72683 1.72671 0.833496 4.66671 0.833496H5.66671C6.83337 0.833496 7.20004 1.2135 7.66671 1.8335L8.66671 3.16683C8.88671 3.46016 8.92004 3.50016 9.33337 3.50016H11.3334C14.2734 3.50016 15.1667 4.3935 15.1667 7.3335V8.66683C15.1667 8.94016 14.94 9.16683 14.6667 9.16683C14.3934 9.16683 14.1667 8.94016 14.1667 8.66683V7.3335C14.1667 4.9535 13.72 4.50016 11.3334 4.50016H9.33337C8.48004 4.50016 8.20003 4.20683 7.8667 3.76683L6.8667 2.43349C6.52003 1.97349 6.41337 1.8335 5.66671 1.8335H4.66671C2.28004 1.8335 1.83337 2.28683 1.83337 4.66683V11.3335C1.83337 13.7135 2.28004 14.1668 4.66671 14.1668H6.00004C6.27337 14.1668 6.50004 14.3935 6.50004 14.6668C6.50004 14.9402 6.27337 15.1668 6.00004 15.1668Z" fill="white"/>
<path d="M12.8936 15.2066C12.8869 15.2066 12.8802 15.2066 12.8735 15.2066H9.16687C8.05354 15.1266 7.49353 14.2733 7.49353 13.46C7.49353 12.8067 7.86019 12.12 8.56685 11.84C8.42019 11.0067 8.63356 10.2333 9.18689 9.65332C9.86689 8.93999 10.9602 8.65332 11.9069 8.93999C12.7335 9.19332 13.3269 9.84665 13.5735 10.7533C14.2735 10.9667 14.8269 11.52 15.0535 12.2733C15.3202 13.1467 15.0735 14.04 14.4135 14.6133C14.0135 14.9933 13.4669 15.2066 12.8936 15.2066ZM9.19352 12.7133C8.68686 12.76 8.5002 13.14 8.5002 13.46C8.5002 13.78 8.68687 14.1666 9.20687 14.2066H12.8802C13.2002 14.2333 13.5202 14.0866 13.7602 13.8733C14.1935 13.4933 14.2202 12.9533 14.1069 12.5667C13.9935 12.18 13.6602 11.7467 13.1002 11.6733C12.8802 11.6467 12.7069 11.48 12.6669 11.26C12.5202 10.36 12.0135 10.0267 11.6202 9.89999C11.0335 9.71999 10.3402 9.90664 9.92021 10.3466C9.63354 10.6466 9.35354 11.1867 9.66687 12.0467C9.7602 12.3067 9.62686 12.5933 9.36686 12.6866C9.30686 12.7066 9.24686 12.7133 9.19352 12.7133Z" fill="white"/>
</svg>
