<svg width="16" height="16" viewBox="0 0 16 16" fill="none" xmlns="http://www.w3.org/2000/svg">
<path d="M0.5 3.8335C0.5 3.17045 0.763392 2.53457 1.23223 2.06573C1.70107 1.59689 2.33696 1.3335 3 1.3335H13C13.663 1.3335 14.2989 1.59689 14.7678 2.06573C15.2366 2.53457 15.5 3.17045 15.5 3.8335V12.1668C15.5 12.8299 15.2366 13.4658 14.7678 13.9346C14.2989 14.4034 13.663 14.6668 13 14.6668H3C2.33696 14.6668 1.70107 14.4034 1.23223 13.9346C0.763392 13.4658 0.5 12.8299 0.5 12.1668V3.8335Z" stroke="white" stroke-linecap="round" stroke-linejoin="round"/>
<path d="M10.5 4.66699H12.1667M10.5 8.00033H12.1667M3.83337 11.3337H12.1667M3.83337 6.33366C3.83337 6.77569 4.00897 7.19961 4.32153 7.51217C4.63409 7.82473 5.05801 8.00033 5.50004 8.00033C5.94207 8.00033 6.36599 7.82473 6.67855 7.51217C6.99111 7.19961 7.16671 6.77569 7.16671 6.33366C7.16671 5.89163 6.99111 5.46771 6.67855 5.15515C6.36599 4.84259 5.94207 4.66699 5.50004 4.66699C5.05801 4.66699 4.63409 4.84259 4.32153 5.15515C4.00897 5.46771 3.83337 5.89163 3.83337 6.33366Z" stroke="white" stroke-linecap="round" stroke-linejoin="round"/>
</svg>
