<svg width="16" height="16" viewBox="0 0 16 16" fill="none" xmlns="http://www.w3.org/2000/svg">
<path d="M4 6.66668V5.33334C4 3.12668 4.66667 1.33334 8 1.33334C11.3333 1.33334 12 3.12668 12 5.33334V6.66668" stroke="white" stroke-linecap="round" stroke-linejoin="round"/>
<path d="M7.99999 12.3333C8.92047 12.3333 9.66666 11.5871 9.66666 10.6667C9.66666 9.74619 8.92047 9 7.99999 9C7.07952 9 6.33333 9.74619 6.33333 10.6667C6.33333 11.5871 7.07952 12.3333 7.99999 12.3333Z" stroke="white" stroke-linecap="round" stroke-linejoin="round"/>
<path d="M11.3333 14.6667H4.66666C1.99999 14.6667 1.33333 14 1.33333 11.3333V9.99999C1.33333 7.33332 1.99999 6.66666 4.66666 6.66666H11.3333C14 6.66666 14.6667 7.33332 14.6667 9.99999V11.3333C14.6667 14 14 14.6667 11.3333 14.6667Z" stroke="white" stroke-linecap="round" stroke-linejoin="round"/>
</svg>
