<svg width="29" height="28" viewBox="0 0 29 28" fill="none" xmlns="http://www.w3.org/2000/svg">
<rect x="0.5" width="28" height="28" rx="14" fill="#2E9278"/>
<path d="M10.0481 19.0995C9.95855 19.0099 9.90198 18.8874 9.90198 18.746L9.90198 13.0231C9.90198 12.7497 10.1283 12.5234 10.4017 12.5234C10.6751 12.5234 10.9014 12.7497 10.9014 13.0231L10.9014 18.2463L16.1245 18.2463C16.3979 18.2463 16.6242 18.4725 16.6242 18.746C16.6242 19.0194 16.3979 19.2456 16.1245 19.2456L10.4017 19.2456C10.2603 19.2456 10.1377 19.1891 10.0481 19.0995Z" fill="white"/>
<path d="M10.1282 19.0193C9.93496 18.826 9.93496 18.5055 10.1282 18.3122L18.062 10.3785C18.2552 10.1852 18.5758 10.1852 18.7691 10.3785C18.9624 10.5717 18.9624 10.8923 18.7691 11.0856L10.8353 19.0193C10.6421 19.2126 10.3215 19.2126 10.1282 19.0193Z" fill="white"/>
</svg>
