<svg width="29" height="28" viewBox="0 0 29 28" fill="none" xmlns="http://www.w3.org/2000/svg">
<rect x="0.5" width="28" height="28" rx="14" fill="#C40202"/>
<path d="M18.769 10.3785C18.8586 10.4681 18.9152 10.5906 18.9152 10.7321L18.9152 16.4549C18.9152 16.7283 18.6889 16.9546 18.4155 16.9546C18.1421 16.9546 17.9158 16.7283 17.9158 16.4549L17.9158 11.2318L12.6926 11.2318C12.4192 11.2318 12.1929 11.0055 12.1929 10.7321C12.1929 10.4587 12.4192 10.2324 12.6926 10.2324L18.4155 10.2324C18.5569 10.2324 18.6795 10.2889 18.769 10.3785Z" fill="white"/>
<path d="M18.6889 10.4587C18.8822 10.652 18.8822 10.9726 18.6889 11.1658L10.7552 19.0996C10.5619 19.2928 10.2413 19.2928 10.0481 19.0996C9.85478 18.9063 9.85478 18.5857 10.0481 18.3925L17.9818 10.4587C18.1751 10.2655 18.4956 10.2655 18.6889 10.4587Z" fill="white"/>
</svg>
