<svg width="16" height="16" viewBox="0 0 16 16" fill="none" xmlns="http://www.w3.org/2000/svg">
<path d="M7.99999 13.6667H4.66666C2.66666 13.6667 1.33333 12.6667 1.33333 10.3333V5.66666C1.33333 3.33333 2.66666 2.33333 4.66666 2.33333H11.3333C13.3333 2.33333 14.6667 3.33333 14.6667 5.66666V7.66666" stroke="white" stroke-miterlimit="10" stroke-linecap="round" stroke-linejoin="round"/>
<path d="M11.3333 6L9.24667 7.66667C8.56 8.21333 7.43333 8.21333 6.74667 7.66667L4.66667 6" stroke="white" stroke-miterlimit="10" stroke-linecap="round" stroke-linejoin="round"/>
<path d="M12.8067 9.84667L10.4467 12.2067C10.3533 12.3 10.2667 12.4733 10.2467 12.6L10.12 13.5C10.0733 13.8267 10.3 14.0533 10.6267 14.0067L11.5267 13.88C11.6533 13.86 11.8333 13.7733 11.92 13.68L14.28 11.32C14.6867 10.9133 14.88 10.44 14.28 9.84001C13.6867 9.24668 13.2133 9.44 12.8067 9.84667Z" stroke="white" stroke-miterlimit="10" stroke-linecap="round" stroke-linejoin="round"/>
<path d="M12.4667 10.1867C12.6667 10.9067 13.2267 11.4667 13.9467 11.6667" stroke="white" stroke-miterlimit="10" stroke-linecap="round" stroke-linejoin="round"/>
</svg>
